<svg width="34" height="33" viewBox="0 0 34 33" fill="none" xmlns="http://www.w3.org/2000/svg">
<path d="M17.2921 1.97412H1.8571C1.17904 1.97412 0.65239 2.56501 0.730092 3.23861L3.06572 23.4862C3.10768 23.85 3.32269 24.1712 3.64306 24.3486L16.7424 31.6039C17.0844 31.7933 17.4998 31.7933 17.8418 31.6039L30.9412 24.3486C31.2615 24.1712 31.4766 23.85 31.5185 23.4862L33.8541 3.23861C33.9318 2.56501 33.4052 1.97412 32.7271 1.97412H17.2921Z" fill="#4560EC"/>
<path d="M15.2294 1.97408L16.2223 30.6463C16.2517 31.4937 17.1665 32.0106 17.9075 31.5985L30.9427 24.3488C31.2621 24.1712 31.4764 23.8505 31.5183 23.4874L33.8541 3.23857C33.9318 2.56497 33.4051 1.97408 32.7271 1.97408H15.2294Z" fill="#3A4287"/>
<path d="M28.3861 6.94824H6.45588C6.20343 6.94824 5.99878 7.09637 5.99878 7.2791V22.0876C5.99878 22.2704 6.20343 22.4185 6.45588 22.4185H28.3861C28.6386 22.4185 28.8432 22.2704 28.8432 22.0876V7.2791C28.8432 7.09637 28.6386 6.94824 28.3861 6.94824Z" fill="#F4F4F4"/>
<path d="M28.7424 12.4138C28.8006 12.4138 28.8478 12.461 28.8478 12.5193C28.8478 12.5749 28.8048 12.6204 28.7502 12.6244L28.7424 12.6247H6.10423C6.04599 12.6247 5.99878 12.5775 5.99878 12.5193C5.99878 12.4637 6.0418 12.4181 6.09636 12.4141L6.10423 12.4138H28.7424Z" fill="#C4C4C4"/>
<path d="M11.1657 6.94824C11.2213 6.94824 11.2669 6.99126 11.2709 7.04582L11.2712 7.05369V22.3259C11.2712 22.3841 11.224 22.4313 11.1657 22.4313C11.1102 22.4313 11.0646 22.3883 11.0606 22.3337L11.0603 22.3259V7.05369C11.0603 6.99545 11.1075 6.94824 11.1657 6.94824Z" fill="#C4C4C4"/>
<path d="M17.2817 6.94824C17.3373 6.94824 17.3829 6.99126 17.3869 7.04582L17.3872 7.05369V22.3259C17.3872 22.3841 17.34 22.4313 17.2817 22.4313C17.2261 22.4313 17.1806 22.3883 17.1766 22.3337L17.1763 22.3259V7.05369C17.1763 6.99545 17.2235 6.94824 17.2817 6.94824Z" fill="#C4C4C4"/>
<path d="M23.1869 6.94824C23.2425 6.94824 23.288 6.99126 23.292 7.04582L23.2923 7.05369V22.3259C23.2923 22.3841 23.2451 22.4313 23.1869 22.4313C23.1313 22.4313 23.0857 22.3883 23.0817 22.3337L23.0814 22.3259V7.05369C23.0814 6.99545 23.1286 6.94824 23.1869 6.94824Z" fill="#C4C4C4"/>
<path d="M28.7424 17.991C28.8006 17.991 28.8478 18.0382 28.8478 18.0964C28.8478 18.152 28.8048 18.1975 28.7502 18.2016L28.7424 18.2019H6.10423C6.04599 18.2019 5.99878 18.1547 5.99878 18.0964C5.99878 18.0408 6.0418 17.9953 6.09636 17.9913L6.10423 17.991H28.7424Z" fill="#C4C4C4"/>
<path d="M24.5183 13.8795H25.1294V17.6813C25.1294 17.7684 25.0588 17.839 24.9717 17.839H24.676C24.5889 17.839 24.5183 17.7684 24.5183 17.6813V13.8795Z" fill="#CCD7EE"/>
<path d="M24.9501 13.2688H24.7146L24.5183 13.8799H25.1293L24.9501 13.2688Z" fill="#A3B5D6"/>
<path d="M24.8185 13.0146L24.722 13.2692H24.9454L24.843 13.0144C24.841 13.0093 24.8361 13.006 24.8307 13.0061C24.8252 13.0062 24.8204 13.0096 24.8185 13.0146Z" fill="#253368"/>
<path d="M27.3301 17.3734H27.6643V17.6719C27.6643 17.7642 27.5894 17.839 27.4972 17.839C27.4049 17.839 27.3301 17.7642 27.3301 17.6719V17.3734H27.3301Z" fill="#253368"/>
<path d="M27.5352 13.0596C27.5352 13.0361 27.5161 13.0171 27.4926 13.0171C27.4691 13.0171 27.4501 13.0361 27.4501 13.0596V13.1667C27.4501 13.1902 27.4691 13.2093 27.4926 13.2093C27.5161 13.2093 27.5352 13.1902 27.5352 13.1667V13.0596Z" fill="#253368"/>
<path d="M27.2516 13.6664H27.7424V17.3471C27.7424 17.4342 27.6718 17.5048 27.5847 17.5048H27.4093C27.3222 17.5048 27.2516 17.4342 27.2516 17.3471V13.6664Z" fill="#4E5C93"/>
<path d="M27.5604 13.1698L27.7427 13.6664H27.2516L27.4259 13.1702C27.4296 13.1596 27.4396 13.1526 27.4507 13.1526H27.5354C27.5466 13.1525 27.5566 13.1594 27.5604 13.1698Z" fill="#CCD7EE"/>
<path d="M27.7425 17.1707H27.252V17.2594H27.7425V17.1707Z" fill="white"/>
<path d="M27.8866 16.5677H27.7424V17.1561H27.8866V16.5677Z" fill="#253368"/>
<path d="M27.9458 15.9889C27.9458 15.9563 27.9193 15.9298 27.8866 15.9298C27.854 15.9298 27.8275 15.9563 27.8275 15.9889V17.4476C27.8275 17.4803 27.854 17.5067 27.8866 17.5067C27.9193 17.5067 27.9458 17.4803 27.9458 17.4476V15.9889Z" fill="#A3B5D6"/>
<path d="M26.2342 13.3929H26.0354C26.0086 13.3929 25.9868 13.3712 25.9868 13.3443V13.0924C25.9868 13.0692 26.0032 13.0493 26.0259 13.0448L26.2246 13.0054C26.2389 13.0025 26.2537 13.0062 26.265 13.0154C26.2763 13.0246 26.2828 13.0384 26.2828 13.053V13.3443C26.2828 13.3712 26.261 13.3929 26.2342 13.3929Z" fill="#A3B5D6"/>
<path d="M26.5188 13.9664H25.7745V17.1188H26.5188V13.9664Z" fill="#A3B5D6"/>
<path d="M25.7745 16.6859H26.5188V17.6878C26.5188 17.7749 26.4482 17.8455 26.3611 17.8455H25.9322C25.8451 17.8455 25.7745 17.7749 25.7745 17.6878V16.6859Z" fill="#253368"/>
<path d="M26.5188 13.9664H25.7745V14.2425H26.5188V13.9664Z" fill="#253368"/>
<path d="M26.5188 13.7979V13.9665H25.7745V13.7967L25.9754 13.2943H26.295L26.5188 13.7979Z" fill="#CCD7EE"/>
<path d="M26.5176 13.7991H25.7733V13.9689H26.5176V13.7991Z" fill="#E4EBF7"/>
<path d="M26.5176 16.9595H25.7733V17.1293H26.5176V16.9595Z" fill="#E4EBF7"/>
<path d="M26.348 14.9524C26.348 15.0452 26.3074 15.0786 26.2261 15.0516C26.1449 15.0246 26.1031 14.9629 26.1031 14.8672V14.7896C26.1031 14.7778 26.0956 14.7673 26.0845 14.7633L25.9692 14.7228C25.958 14.7189 25.9506 14.7083 25.9506 14.6965V14.6906C25.9506 14.6816 25.9549 14.6731 25.9623 14.6678C25.9697 14.6626 25.9792 14.6613 25.9878 14.6643L26.3294 14.7863C26.3405 14.7903 26.3479 14.8008 26.3479 14.8126L26.348 14.9524ZM26.1958 14.8025C26.1873 14.7995 26.1779 14.8008 26.1705 14.806C26.1631 14.8113 26.1588 14.8198 26.1588 14.8288V14.8826C26.1588 14.9111 26.1643 14.9337 26.1744 14.9503C26.1844 14.9668 26.2021 14.9793 26.2261 14.9874C26.2501 14.9955 26.2667 14.994 26.2768 14.9844C26.2868 14.9749 26.2924 14.9561 26.2924 14.9285V14.8562C26.2924 14.8444 26.2849 14.8338 26.2738 14.8299L26.1958 14.8025Z" fill="white"/>
<path d="M26.312 15.4127C26.3003 15.4091 26.2923 15.3983 26.2923 15.386V15.2117C26.2922 15.1997 26.2844 15.1891 26.273 15.1854L26.2184 15.1679C26.21 15.1652 26.2008 15.1666 26.1936 15.1718C26.1864 15.177 26.1821 15.1853 26.182 15.1942V15.3226C26.182 15.3315 26.1779 15.3398 26.1708 15.345C26.1637 15.3503 26.1545 15.3519 26.1461 15.3493C26.1344 15.3457 26.1264 15.3349 26.1264 15.3226V15.1584C26.1263 15.1464 26.1185 15.1358 26.1071 15.1321L26.0426 15.1106C26.0342 15.1079 26.0249 15.1094 26.0178 15.1145C26.0106 15.1197 26.0063 15.128 26.0062 15.1369V15.2911C26.0062 15.2999 26.002 15.3082 25.995 15.3135C25.9879 15.3187 25.9787 15.3203 25.9703 15.3177C25.9586 15.3141 25.9506 15.3033 25.9506 15.2911V15.054C25.9506 15.0451 25.9549 15.0368 25.9621 15.0316C25.9693 15.0264 25.9786 15.025 25.987 15.0278L26.3287 15.1395C26.3401 15.1432 26.3478 15.1538 26.3479 15.1657V15.3856C26.348 15.3945 26.3439 15.4029 26.3368 15.4082C26.3297 15.4136 26.3205 15.4152 26.312 15.4127Z" fill="white"/>
<path d="M26.348 15.536C26.348 15.5475 26.3409 15.5578 26.3302 15.5619L26.0613 15.6656V15.6678L26.3276 15.7417C26.3397 15.7451 26.348 15.7561 26.348 15.7686V15.7746C26.348 15.7833 26.344 15.7914 26.3371 15.7967C26.3302 15.802 26.3212 15.8037 26.3129 15.8015L25.9712 15.7082C25.9591 15.7049 25.9507 15.694 25.9507 15.6814V15.6584C25.9506 15.6468 25.9576 15.6364 25.9684 15.6321L26.2412 15.5256V15.5235L25.9704 15.4441C25.9587 15.4405 25.9507 15.4297 25.9507 15.4174V15.4105C25.9507 15.4017 25.9549 15.3935 25.9619 15.3882C25.969 15.383 25.9781 15.3813 25.9865 15.3838L26.3282 15.486C26.3399 15.4896 26.3479 15.5004 26.3479 15.5127L26.348 15.536Z" fill="white"/>
<path d="M26.4061 15.957H26.3401V15.9646H26.3685V15.9845C26.3685 15.9887 26.3677 15.9919 26.3661 15.9941C26.3644 15.9965 26.3616 15.9979 26.3577 15.9982L26.3489 15.9991C26.3452 15.9993 26.3423 16.0003 26.3401 16.0018V16.01C26.3425 16.008 26.3457 16.0068 26.3498 16.0065L26.36 16.0055C26.3666 16.0047 26.3706 16.0012 26.372 15.9949H26.3722C26.3731 15.9987 26.375 16.0017 26.3779 16.0039C26.3808 16.0059 26.384 16.0069 26.3877 16.0069C26.3938 16.0069 26.3985 16.0049 26.4016 16.001C26.4047 15.9972 26.4061 15.992 26.4061 15.9855V15.957ZM26.3996 15.9646V15.9845C26.3996 15.9896 26.3986 15.9934 26.3965 15.9958C26.3946 15.9981 26.3915 15.9993 26.3875 15.9993C26.3836 15.9993 26.3806 15.9981 26.3785 15.9957C26.3763 15.9932 26.3751 15.9894 26.3751 15.9845V15.9646H26.3996ZM26.4061 16.0195H26.3401V16.0679H26.3467V16.0271H26.3709V16.0641H26.3775V16.0271H26.3996V16.0663H26.4061V16.0195ZM26.4061 16.0784H26.3401V16.1013C26.3401 16.1117 26.3431 16.1197 26.3492 16.1252C26.3549 16.1305 26.3629 16.1332 26.3731 16.1332C26.3835 16.1332 26.3915 16.1307 26.3971 16.1258C26.4032 16.1204 26.4061 16.1125 26.4061 16.1021V16.0784ZM26.3996 16.086V16.1009C26.3996 16.1096 26.3974 16.1159 26.3928 16.1199C26.3886 16.1237 26.382 16.1257 26.3731 16.1257C26.3645 16.1257 26.3579 16.1235 26.3535 16.1195C26.349 16.1151 26.3467 16.1087 26.3467 16.1V16.086H26.3996Z" fill="#4E5C93"/>
<path d="M26.052 15.9829C26.052 15.9649 26.0374 15.9503 26.0194 15.9503C26.0014 15.9503 25.9868 15.9649 25.9868 15.9829V16.243C25.9868 16.261 26.0014 16.2756 26.0194 16.2756C26.0374 16.2756 26.052 16.261 26.052 16.243V15.9829Z" fill="#4E5C93"/>
<path d="M24.9519 13.8816H24.7023V17.839H24.9519V13.8816Z" fill="#CCD7EE"/>
</svg>
