<svg width="28" height="34" viewBox="0 0 28 34" fill="none" xmlns="http://www.w3.org/2000/svg">
<path d="M14.2921 2.54688H1.86496C1.17743 2.54688 0.638509 3.13758 0.701422 3.82223L2.62522 24.7579C2.65679 25.1014 2.83852 25.4134 3.12174 25.6103L13.6251 32.9131C14.0261 33.1919 14.5581 33.1919 14.9591 32.9131L25.4625 25.6103C25.7457 25.4134 25.9274 25.1014 25.959 24.7579L27.8828 3.82223C27.9457 3.13759 27.4068 2.54688 26.7193 2.54688H14.2921Z" fill="#4560EC"/>
<path d="M12.5997 2.54683L13.4073 31.8197C13.4329 32.7494 14.4816 33.2779 15.2441 32.7456L25.4641 25.6104C25.7463 25.4134 25.9273 25.102 25.9588 24.7592L27.8827 3.82219C27.9456 3.13754 27.4067 2.54683 26.7192 2.54683H12.5997Z" fill="#3A4287"/>
<path d="M23.3942 7.66992H5.40164C5.19452 7.66992 5.02661 7.82249 5.02661 8.01069V23.2624C5.02661 23.4506 5.19452 23.6031 5.40164 23.6031H23.3942C23.6013 23.6031 23.7692 23.4506 23.7692 23.2624V8.01069C23.7692 7.82249 23.6013 7.66992 23.3942 7.66992Z" fill="#F4F4F4"/>
<path d="M23.6864 13.2991C23.7342 13.2991 23.773 13.3477 23.773 13.4077C23.773 13.4649 23.7377 13.5118 23.6929 13.516L23.6864 13.5163H5.11312C5.06534 13.5163 5.02661 13.4677 5.02661 13.4077C5.02661 13.3504 5.0619 13.3035 5.10667 13.2994L5.11312 13.2991H23.6864Z" fill="#C4C4C4"/>
<path d="M9.26583 7.66992C9.31144 7.66992 9.34881 7.71423 9.35211 7.77042L9.35235 7.77853V23.5077C9.35235 23.5677 9.31361 23.6163 9.26583 23.6163C9.22023 23.6163 9.18286 23.572 9.17956 23.5158L9.17932 23.5077V7.77853C9.17932 7.71855 9.21805 7.66992 9.26583 7.66992Z" fill="#C4C4C4"/>
<path d="M14.2835 7.66992C14.3291 7.66992 14.3665 7.71423 14.3698 7.77042L14.3701 7.77853V23.5077C14.3701 23.5677 14.3313 23.6163 14.2835 23.6163C14.2379 23.6163 14.2006 23.572 14.1973 23.5158L14.197 23.5077V7.77853C14.197 7.71855 14.2358 7.66992 14.2835 7.66992Z" fill="#C4C4C4"/>
<path d="M19.1284 7.66992C19.174 7.66992 19.2114 7.71423 19.2147 7.77042L19.2149 7.77853V23.5077C19.2149 23.5677 19.1762 23.6163 19.1284 23.6163C19.0828 23.6163 19.0454 23.572 19.0421 23.5158L19.0419 23.5077V7.77853C19.0419 7.71855 19.0806 7.66992 19.1284 7.66992Z" fill="#C4C4C4"/>
<path d="M23.6864 19.0431C23.7342 19.0431 23.773 19.0917 23.773 19.1517C23.773 19.2089 23.7377 19.2559 23.6929 19.26L23.6864 19.2603H5.11312C5.06534 19.2603 5.02661 19.2117 5.02661 19.1517C5.02661 19.0944 5.0619 19.0475 5.10667 19.0434L5.11312 19.0431H23.6864Z" fill="#C4C4C4"/>
<g clip-path="url(#clip0_1355_1965)">
<path d="M20.1949 14.7709H20.6817V18.5727C20.6817 18.6598 20.6255 18.7304 20.5561 18.7304H20.3206C20.2512 18.7304 20.1949 18.6598 20.1949 18.5727V14.7709Z" fill="#CCD7EE"/>
<path d="M20.5389 14.1602H20.3513L20.1949 14.7712H20.6817L20.5389 14.1602Z" fill="#A3B5D6"/>
<path d="M20.434 13.906L20.3572 14.1606H20.5351L20.4535 13.9057C20.4519 13.9007 20.448 13.8974 20.4437 13.8975C20.4394 13.8975 20.4355 13.9009 20.434 13.906Z" fill="#253368"/>
<path d="M22.4347 18.2648H22.7009V18.5633C22.7009 18.6555 22.6413 18.7304 22.5678 18.7304C22.4943 18.7304 22.4347 18.6555 22.4347 18.5633V18.2648H22.4347Z" fill="#253368"/>
<path d="M22.5982 13.951C22.5982 13.9275 22.583 13.9084 22.5643 13.9084C22.5456 13.9084 22.5304 13.9275 22.5304 13.951V14.0581C22.5304 14.0816 22.5456 14.1006 22.5643 14.1006C22.583 14.1006 22.5982 14.0816 22.5982 14.0581V13.951Z" fill="#253368"/>
<path d="M22.3723 14.5577H22.7633V18.2385C22.7633 18.3255 22.7071 18.3962 22.6377 18.3962H22.4979C22.4286 18.3962 22.3723 18.3255 22.3723 18.2385V14.5577Z" fill="#4E5C93"/>
<path d="M22.6183 14.0612L22.7636 14.5578H22.3723L22.5112 14.0616C22.5141 14.051 22.5221 14.0439 22.531 14.0439H22.5984C22.6073 14.0438 22.6153 14.0507 22.6183 14.0612Z" fill="#CCD7EE"/>
<path d="M22.7632 18.062H22.3724V18.1508H22.7632V18.062Z" fill="white"/>
<path d="M22.8781 17.4591H22.7633V18.0474H22.8781V17.4591Z" fill="#253368"/>
<path d="M22.9251 16.8803C22.9251 16.8476 22.9041 16.8212 22.878 16.8212C22.852 16.8212 22.8309 16.8476 22.8309 16.8803V18.3389C22.8309 18.3716 22.852 18.3981 22.878 18.3981C22.9041 18.3981 22.9251 18.3716 22.9251 18.3389V16.8803Z" fill="#A3B5D6"/>
<path d="M21.5618 14.2843H21.4035C21.3821 14.2843 21.3647 14.2625 21.3647 14.2357V13.9838C21.3647 13.9606 21.3778 13.9406 21.3959 13.9361L21.5542 13.8967C21.5655 13.8938 21.5774 13.8975 21.5863 13.9067C21.5953 13.916 21.6005 13.9298 21.6005 13.9443V14.2357C21.6005 14.2625 21.5832 14.2843 21.5618 14.2843Z" fill="#A3B5D6"/>
<path d="M21.7885 14.8578H21.1956V18.0102H21.7885V14.8578Z" fill="#A3B5D6"/>
<path d="M21.1956 17.5773H21.7885V18.5792C21.7885 18.6663 21.7322 18.7369 21.6629 18.7369H21.3212C21.2518 18.7369 21.1956 18.6663 21.1956 18.5792V17.5773Z" fill="#253368"/>
<path d="M21.7885 14.8578H21.1956V15.1338H21.7885V14.8578Z" fill="#253368"/>
<path d="M21.7885 14.6893V14.8578H21.1956V14.688L21.3556 14.1857H21.6101L21.7885 14.6893Z" fill="#CCD7EE"/>
<path d="M21.7875 14.6904H21.1946V14.8602H21.7875V14.6904Z" fill="#E4EBF7"/>
<path d="M21.7875 17.8508H21.1946V18.0206H21.7875V17.8508Z" fill="#E4EBF7"/>
<path d="M21.6524 15.8438C21.6524 15.9365 21.6201 15.97 21.5553 15.943C21.4906 15.9159 21.4573 15.8542 21.4573 15.7586V15.681C21.4573 15.6692 21.4514 15.6586 21.4425 15.6547L21.3506 15.6142C21.3417 15.6102 21.3358 15.5997 21.3358 15.5879V15.582C21.3358 15.5729 21.3393 15.5644 21.3452 15.5592C21.3511 15.554 21.3586 15.5527 21.3654 15.5557L21.6376 15.6776C21.6464 15.6816 21.6523 15.6921 21.6523 15.7039L21.6524 15.8438ZM21.5312 15.6939C21.5244 15.6909 21.5169 15.6922 21.511 15.6974C21.5051 15.7026 21.5017 15.7111 21.5017 15.7201V15.774C21.5017 15.8024 21.5061 15.8251 21.5141 15.8416C21.5221 15.8582 21.5362 15.8707 21.5553 15.8788C21.5744 15.8868 21.5877 15.8853 21.5957 15.8758C21.6037 15.8663 21.6081 15.8474 21.6081 15.8198V15.7475C21.6081 15.7357 21.6022 15.7252 21.5933 15.7213L21.5312 15.6939Z" fill="white"/>
<path d="M21.6237 16.304C21.6144 16.3004 21.6081 16.2896 21.608 16.2774V16.1031C21.6079 16.0911 21.6017 16.0805 21.5927 16.0768L21.5492 16.0593C21.5425 16.0565 21.5351 16.058 21.5294 16.0632C21.5237 16.0683 21.5202 16.0767 21.5202 16.0855V16.214C21.5202 16.2228 21.5169 16.2311 21.5112 16.2364C21.5056 16.2416 21.4983 16.2432 21.4916 16.2407C21.4823 16.2371 21.4759 16.2262 21.4759 16.214V16.0497C21.4758 16.0377 21.4696 16.0272 21.4605 16.0235L21.4091 16.002C21.4024 15.9992 21.3951 16.0007 21.3893 16.0059C21.3836 16.0111 21.3802 16.0194 21.3801 16.0282V16.1825C21.3802 16.1913 21.3768 16.1996 21.3712 16.2048C21.3655 16.2101 21.3582 16.2117 21.3515 16.2091C21.3422 16.2055 21.3358 16.1947 21.3358 16.1825V15.9454C21.3358 15.9365 21.3393 15.9282 21.345 15.923C21.3508 15.9178 21.3581 15.9163 21.3649 15.9191L21.637 16.0308C21.6461 16.0345 21.6523 16.0451 21.6523 16.0571V16.2769C21.6524 16.2858 21.6491 16.2942 21.6435 16.2996C21.6379 16.3049 21.6305 16.3066 21.6237 16.304Z" fill="white"/>
<path d="M21.6524 16.4273C21.6524 16.4388 21.6468 16.4491 21.6383 16.4533L21.4241 16.5569V16.5591L21.6362 16.6331C21.6458 16.6365 21.6524 16.6474 21.6524 16.6599V16.666C21.6524 16.6746 21.6492 16.6828 21.6437 16.6881C21.6382 16.6933 21.6311 16.6951 21.6244 16.6928L21.3523 16.5996C21.3426 16.5963 21.3359 16.5853 21.3359 16.5728V16.5498C21.3358 16.5382 21.3415 16.5277 21.3501 16.5235L21.5674 16.417V16.4148L21.3516 16.3355C21.3423 16.3319 21.3359 16.321 21.3359 16.3088V16.3019C21.3359 16.2931 21.3393 16.2848 21.3449 16.2796C21.3505 16.2743 21.3578 16.2727 21.3645 16.2752L21.6366 16.3774C21.646 16.381 21.6523 16.3918 21.6523 16.4041L21.6524 16.4273Z" fill="white"/>
<path d="M21.7122 16.8483H21.6461V16.8559H21.6745V16.8759C21.6745 16.8801 21.6738 16.8832 21.6721 16.8854C21.6704 16.8878 21.6676 16.8892 21.6637 16.8896L21.6549 16.8904C21.6512 16.8907 21.6483 16.8916 21.6461 16.8931V16.9013C21.6485 16.8994 21.6518 16.8982 21.6558 16.8978L21.666 16.8968C21.6727 16.8961 21.6766 16.8926 21.678 16.8863H21.6782C21.6791 16.8901 21.681 16.893 21.684 16.8952C21.6868 16.8973 21.6901 16.8983 21.6938 16.8983C21.6999 16.8983 21.7045 16.8963 21.7076 16.8924C21.7107 16.8886 21.7122 16.8834 21.7122 16.8768V16.8483ZM21.7056 16.8559V16.8759C21.7056 16.881 21.7046 16.8848 21.7026 16.8872C21.7006 16.8894 21.6976 16.8906 21.6935 16.8906C21.6896 16.8906 21.6866 16.8894 21.6845 16.8871C21.6823 16.8845 21.6811 16.8807 21.6811 16.8759V16.8559H21.7056ZM21.7122 16.9109H21.6461V16.9592H21.6527V16.9184H21.6769V16.9554H21.6835V16.9184H21.7056V16.9577H21.7122V16.9109ZM21.7122 16.9698H21.6461V16.9927C21.6461 17.0031 21.6492 17.011 21.6552 17.0166C21.6609 17.0218 21.669 17.0245 21.6791 17.0245C21.6895 17.0245 21.6976 17.022 21.7031 17.0171C21.7092 17.0118 21.7122 17.0039 21.7122 16.9934V16.9698ZM21.7056 16.9773V16.9922C21.7056 17.0009 21.7034 17.0072 21.6989 17.0113C21.6946 17.0151 21.688 17.017 21.6791 17.017C21.6705 17.017 21.664 17.0149 21.6595 17.0108C21.655 17.0065 21.6527 17 21.6527 16.9914V16.9773H21.7056Z" fill="#4E5C93"/>
<path d="M21.4167 16.8743C21.4167 16.8563 21.405 16.8417 21.3907 16.8417C21.3764 16.8417 21.3647 16.8563 21.3647 16.8743V17.1343C21.3647 17.1523 21.3764 17.1669 21.3907 17.1669C21.405 17.1669 21.4167 17.1523 21.4167 17.1343V16.8743Z" fill="#4E5C93"/>
<path d="M20.5403 14.7729H20.3414V18.7304H20.5403V14.7729Z" fill="#CCD7EE"/>
</g>
<defs>
<clipPath id="clip0_1355_1965">
<rect width="4.46641" height="5.60681" fill="white" transform="translate(19.3269 13.5121)"/>
</clipPath>
</defs>
</svg>
