<svg width="648" height="631" viewBox="0 0 648 631" fill="none" xmlns="http://www.w3.org/2000/svg">
<path
        d="M324 38.5403H24.6836C11.5345 38.5403 1.32178 49.9988 2.82859 63.0613L48.1211 455.703C48.9349 462.758 53.1043 468.986 59.3169 472.427L313.341 613.122C319.972 616.795 328.028 616.795 334.659 613.122L588.683 472.427C594.896 468.986 599.065 462.758 599.879 455.703L645.171 63.0613C646.678 49.9988 636.465 38.5403 623.316 38.5403H324Z"
        fill="#4560EC"
    />
<path
        d="M284 38.5403L303.255 594.552C303.824 610.986 321.564 621.01 335.935 613.017L588.713 472.432C594.908 468.987 599.063 462.768 599.876 455.727L645.171 63.0613C646.678 49.9988 636.465 38.5403 623.316 38.5403H284Z"
        fill="#3A4287"
    />
<path
        d="M539.136 135H113.864C108.969 135 105 137.873 105 141.416V428.584C105 432.127 108.969 435 113.864 435H539.136C544.031 435 548 432.127 548 428.584V141.416C548 137.873 544.031 135 539.136 135Z"
        fill="#F4F4F4"
    />
<path
        d="M546.044 240.988C547.174 240.988 548.089 241.904 548.089 243.033C548.089 244.111 547.255 244.994 546.197 245.072L546.044 245.078H107.045C105.915 245.078 105 244.163 105 243.033C105 241.955 105.834 241.072 106.892 240.994L107.045 240.988H546.044Z"
        fill="#C4C4C4"
    />
<path
        d="M205.197 135C206.275 135 207.158 135.834 207.237 136.892L207.242 137.045V433.204C207.242 434.333 206.327 435.248 205.197 435.248C204.119 435.248 203.236 434.414 203.158 433.356L203.152 433.204V137.045C203.152 135.916 204.068 135 205.197 135Z"
        fill="#C4C4C4"
    />
<path
        d="M323.798 135C324.876 135 325.759 135.834 325.837 136.892L325.843 137.045V433.204C325.843 434.333 324.927 435.248 323.798 435.248C322.72 435.248 321.837 434.414 321.759 433.356L321.753 433.204V137.045C321.753 135.916 322.669 135 323.798 135Z"
        fill="#C4C4C4"
    />
<path
        d="M438.309 135C439.387 135 440.271 135.834 440.349 136.892L440.354 137.045V433.204C440.354 434.333 439.439 435.248 438.309 435.248C437.231 435.248 436.348 434.414 436.27 433.356L436.265 433.204V137.045C436.265 135.916 437.18 135 438.309 135Z"
        fill="#C4C4C4"
    />
<path
        d="M546.044 349.141C547.174 349.141 548.089 350.056 548.089 351.186C548.089 352.264 547.255 353.147 546.197 353.225L546.044 353.231H107.045C105.916 353.231 105 352.315 105 351.186C105 350.108 105.834 349.225 106.892 349.146L107.045 349.141H546.044Z"
        fill="#C4C4C4"
    />
<path
        d="M463.017 268.123H474.242V337.965C474.242 339.565 472.945 340.862 471.345 340.862H465.913C464.314 340.862 463.017 339.565 463.017 337.965V268.123Z"
        fill="#CCD7EE"
    />
<path d="M470.948 256.905H466.623L463.017 268.131H474.241L470.948 256.905Z" fill="#A3B5D6" />
<path
        d="M468.53 252.235L466.758 256.913H470.862L468.981 252.231C468.944 252.138 468.853 252.078 468.754 252.079C468.654 252.08 468.565 252.142 468.53 252.235Z"
        fill="#253368"
    />
<path
        d="M514.67 332.309H520.808V337.792C520.808 339.487 519.434 340.862 517.739 340.862C516.043 340.862 514.669 339.487 514.669 337.792V332.309H514.67Z"
        fill="#253368"
    />
<path
        d="M518.439 253.064C518.439 252.632 518.089 252.282 517.657 252.282C517.226 252.282 516.876 252.632 516.876 253.064V255.031C516.876 255.463 517.226 255.813 517.657 255.813C518.089 255.813 518.439 255.463 518.439 255.031V253.064Z"
        fill="#253368"
    />
<path
        d="M513.229 264.209H522.246V331.826C522.246 333.426 520.949 334.723 519.349 334.723H516.126C514.526 334.723 513.229 333.426 513.229 331.826V264.209Z"
        fill="#4E5C93"
    />
<path
        d="M518.902 255.086L522.252 264.209H513.229L516.431 255.094C516.499 254.9 516.682 254.77 516.888 254.77H518.443C518.648 254.768 518.832 254.894 518.902 255.086Z"
        fill="#CCD7EE"
    />
<path d="M522.246 328.584H513.234V330.214H522.246V328.584Z" fill="white" />
<path d="M524.894 317.509H522.246V328.317H524.894V317.509Z" fill="#253368" />
<path
        d="M525.98 306.876C525.98 306.276 525.494 305.79 524.894 305.79C524.294 305.79 523.807 306.276 523.807 306.876V333.673C523.807 334.272 524.294 334.759 524.894 334.759C525.494 334.759 525.98 334.272 525.98 333.673V306.876Z"
        fill="#A3B5D6"
    />
<path
        d="M494.538 259.185H490.887C490.394 259.185 489.994 258.786 489.994 258.292V253.664C489.994 253.239 490.294 252.872 490.712 252.789L494.362 252.065C494.624 252.012 494.897 252.08 495.104 252.25C495.311 252.419 495.431 252.673 495.431 252.94V258.292C495.431 258.786 495.032 259.185 494.538 259.185Z"
        fill="#A3B5D6"
    />
<path d="M499.767 269.722H486.094V327.633H499.767V269.722Z" fill="#A3B5D6" />
<path
        d="M486.094 319.679H499.767V338.085C499.767 339.685 498.47 340.982 496.87 340.982H488.991C487.391 340.982 486.094 339.685 486.094 338.085V319.679Z"
        fill="#253368"
    />
<path d="M499.767 269.722H486.094V274.792H499.767V269.722Z" fill="#253368" />
<path d="M499.767 266.626V269.722H486.094V266.603L489.784 257.374H495.655L499.767 266.626Z" fill="#CCD7EE" />
<path d="M499.744 266.646H486.071V269.765H499.744V266.646Z" fill="#E4EBF7" />
<path d="M499.744 324.704H486.071V327.823H499.744V324.704Z" fill="#E4EBF7" />
<path
        d="M496.629 287.836C496.629 289.539 495.883 290.153 494.39 289.657C492.897 289.161 492.129 288.027 492.129 286.27V284.844C492.129 284.627 491.992 284.434 491.787 284.362L489.669 283.617C489.464 283.545 489.328 283.351 489.328 283.134V283.025C489.327 282.859 489.408 282.703 489.544 282.607C489.68 282.511 489.854 282.487 490.011 282.543L496.287 284.783C496.491 284.856 496.627 285.049 496.626 285.266L496.629 287.836ZM493.833 285.081C493.677 285.026 493.503 285.05 493.368 285.146C493.232 285.242 493.152 285.398 493.153 285.564V286.552C493.153 287.075 493.254 287.492 493.439 287.796C493.623 288.1 493.949 288.329 494.39 288.478C494.83 288.626 495.136 288.598 495.32 288.423C495.505 288.248 495.606 287.902 495.606 287.395V286.067C495.607 285.85 495.47 285.657 495.265 285.584L493.833 285.081Z"
        fill="white"
    />
<path
        d="M495.969 296.288C495.754 296.223 495.607 296.024 495.607 295.8V292.597C495.604 292.377 495.461 292.182 495.252 292.114L494.25 291.792C494.095 291.742 493.925 291.768 493.793 291.864C493.661 291.959 493.582 292.112 493.581 292.275V294.635C493.581 294.797 493.504 294.949 493.374 295.046C493.244 295.143 493.076 295.172 492.921 295.125C492.706 295.059 492.559 294.86 492.559 294.635V291.617C492.557 291.397 492.415 291.202 492.205 291.134L491.02 290.74C490.865 290.69 490.695 290.717 490.563 290.812C490.431 290.907 490.352 291.06 490.351 291.222V294.055C490.351 294.217 490.275 294.37 490.144 294.466C490.014 294.563 489.846 294.592 489.691 294.544C489.476 294.478 489.329 294.28 489.329 294.055V289.7C489.329 289.537 489.408 289.384 489.541 289.288C489.673 289.193 489.843 289.167 489.999 289.218L496.275 291.27C496.484 291.338 496.627 291.532 496.628 291.752V295.791C496.63 295.954 496.554 296.109 496.424 296.207C496.294 296.305 496.125 296.335 495.969 296.288Z"
        fill="white"
    />
<path
        d="M496.629 298.555C496.629 298.766 496.499 298.956 496.302 299.032L491.363 300.937V300.976L496.255 302.336C496.476 302.397 496.629 302.599 496.629 302.828V302.939C496.629 303.098 496.554 303.249 496.428 303.345C496.301 303.442 496.137 303.475 495.983 303.433L489.706 301.72C489.484 301.66 489.33 301.458 489.33 301.228V300.805C489.327 300.592 489.457 300.4 489.656 300.322L494.667 298.366V298.326L489.692 296.868C489.476 296.802 489.329 296.603 489.33 296.378V296.251C489.33 296.089 489.406 295.937 489.536 295.841C489.665 295.745 489.833 295.715 489.988 295.761L496.264 297.638C496.479 297.704 496.626 297.903 496.626 298.128L496.629 298.555Z"
        fill="white"
    />
<path
        d="M495.697 306.289H494.484V306.428H495.006V306.796C495.006 306.872 494.992 306.93 494.962 306.971C494.931 307.015 494.878 307.04 494.807 307.047L494.645 307.062C494.577 307.067 494.525 307.084 494.484 307.112V307.263C494.528 307.227 494.588 307.205 494.662 307.198L494.849 307.18C494.972 307.166 495.045 307.101 495.07 306.986H495.074C495.091 307.056 495.125 307.11 495.179 307.151C495.232 307.188 495.291 307.207 495.359 307.207C495.471 307.207 495.556 307.169 495.614 307.098C495.67 307.028 495.697 306.933 495.697 306.812V306.289ZM495.577 306.428V306.796C495.577 306.889 495.558 306.959 495.521 307.003C495.485 307.044 495.429 307.066 495.354 307.066C495.283 307.066 495.228 307.044 495.189 307.001C495.149 306.954 495.126 306.884 495.126 306.796V306.428H495.577ZM495.697 307.438H494.484V308.326H494.605V307.577H495.05V308.257H495.171V307.577H495.577V308.297H495.697V307.438ZM495.697 308.52H494.484V308.941C494.484 309.131 494.54 309.278 494.651 309.38C494.756 309.476 494.904 309.526 495.091 309.526C495.281 309.526 495.429 309.48 495.531 309.39C495.643 309.291 495.697 309.147 495.697 308.955V308.52ZM495.577 308.659V308.933C495.577 309.092 495.536 309.208 495.453 309.283C495.375 309.352 495.254 309.388 495.091 309.388C494.933 309.388 494.812 309.349 494.73 309.274C494.647 309.194 494.605 309.075 494.605 308.917V308.659H495.577Z"
        fill="#4E5C93"
    />
<path
        d="M491.191 306.764C491.191 306.434 490.923 306.166 490.592 306.166C490.262 306.166 489.994 306.434 489.994 306.764V311.542C489.994 311.872 490.262 312.14 490.592 312.14C490.923 312.14 491.191 311.872 491.191 311.542V306.764Z"
        fill="#4E5C93"
    />
<path d="M470.982 268.162H466.396V340.862H470.982V268.162Z" fill="#CCD7EE" />
</svg>
